<?xml version="1.0" encoding="utf-8"?>
<!--
  - Copyright 2022 Marcel Baumann
  -
  - Licensed under the Apache License, Version 2.0 (the "License"); you may not use this file except in compliance with the License. You may obtain a copy of
  - the License at
  -
  -          https://apache.org/licenses/LICENSE-2.0
  -
  - Unless required by applicable law or agreed to in writing, software distributed under the License is distributed on an "AS IS" BASIS, WITHOUT WARRANTIES
  - OR CONDITIONS OF ANY KIND, either express or implied. See the License for the specific language governing permissions and limitations under the License.
  -->

<!-- Generator: Adobe Illustrator 19.2.1, SVG Export Plug-In . SVG Version: 6.00 Build 0)  -->
<svg version="1.0" id="Layer_1" xmlns="http://www.w3.org/2000/svg" x="0px" y="0px"
     width="347px" height="178px" viewBox="0 0 347 178" enable-background="new 0 0 347 178" xml:space="preserve">
<g>
	<path fill="#25408F" d="M215.6,78.6c0,1.2,0,2.4,0,3.6v7.9l7.6-2.4l8.5-2.6l4.1-1.3v-4.3v-1.4c0-13.9-6.1-20.1-19.7-20.1h-31.5
		c-13.9,0-19.6,6.1-19.6,21.2v5.7c0,15,5.7,21.2,19.6,21.2c10.4,0,20.9,0,31.3,0c0,2.6,0,5.2,0,7.8c-10.8,0-21.6,0-32.3,0
		c0-1.5,0-3.1,0-4.6v-7.6l-7.3,1.9L167,106l-4.4,1.1v4.5v1.8c0,15,5.7,21.2,19.7,21.2h34.5c13.9,0,19.6-6.1,19.6-21.2v-7.3
		c0-15-5.7-21.2-19.6-21.2c-10.5,0-21,0-31.4,0c0-2.1,0-4.3,0-6.4C195.5,78.6,205.5,78.6,215.6,78.6L215.6,78.6z"/>
	<path fill="none" stroke="#25408F" stroke-width="11.7" d="M215.6,78.6c0,1.2,0,2.4,0,3.6v7.9l7.6-2.4l8.5-2.6l4.1-1.3v-4.3v-1.4
		c0-13.9-6.1-20.1-19.7-20.1h-31.5c-13.9,0-19.6,6.1-19.6,21.2v5.7c0,15,5.7,21.2,19.6,21.2c10.4,0,20.9,0,31.3,0c0,2.6,0,5.2,0,7.8
		c-10.8,0-21.6,0-32.3,0c0-1.5,0-3.1,0-4.6v-7.6l-7.3,1.9L167,106l-4.4,1.1v4.5v1.8c0,15,5.7,21.2,19.7,21.2h34.5
		c13.9,0,19.6-6.1,19.6-21.2v-7.3c0-15-5.7-21.2-19.6-21.2c-10.5,0-21,0-31.4,0c0-2.1,0-4.3,0-6.4C195.5,78.6,205.5,78.6,215.6,78.6
		L215.6,78.6z"/>
	<path fill="#25408F" d="M30.4,101.3L87.6,146l4.6,3.6l3.6-4.6l5.6-7.1l3.6-4.6l-4.6-3.6c-14.9-11.7-29.9-23.3-44.8-35
		C68.8,77.7,82,60.8,95.3,43.8l3.6-4.6l-4.6-3.6l-7.8-6.1l-4.6-3.6l-3.6,4.6L29.4,93.1l-3.6,4.6L30.4,101.3L30.4,101.3z"/>
	<path fill="none" stroke="#25408F" stroke-width="11.7" d="M30.4,101.3L87.6,146l4.6,3.6l3.6-4.6l5.6-7.1l3.6-4.6l-4.6-3.6
		c-14.9-11.7-29.9-23.3-44.8-35C68.8,77.7,82,60.8,95.3,43.8l3.6-4.6l-4.6-3.6l-7.8-6.1l-4.6-3.6l-3.6,4.6L29.4,93.1l-3.6,4.6
		L30.4,101.3L30.4,101.3z"/>
	<path fill="#25408F" d="M295.3,78.6c0,1.2,0,2.4,0,3.6v7.9l7.6-2.4l8.5-2.6l4.1-1.3v-4.3v-1.4c0-13.9-6.1-20.1-19.7-20.1h-31.5
		c-13.9,0-19.6,6.1-19.6,21.2v5.7c0,15,5.7,21.2,19.6,21.2c10.4,0,20.9,0,31.3,0c0,2.6,0,5.2,0,7.8c-10.8,0-21.6,0-32.3,0
		c0-1.5,0-3.1,0-4.6v-7.6l-7.3,1.9l-9.2,2.4l-4.4,1.1v4.5v1.8c0,15,5.7,21.2,19.7,21.2h34.5c13.9,0,19.6-6.1,19.6-21.2v-7.3
		c0-15-5.7-21.2-19.6-21.2c-10.5,0-21,0-31.4,0c0-2.1,0-4.3,0-6.4C275.2,78.6,285.3,78.6,295.3,78.6L295.3,78.6z"/>
	<path fill="none" stroke="#25408F" stroke-width="11.7" d="M295.3,78.6c0,1.2,0,2.4,0,3.6v7.9l7.6-2.4l8.5-2.6l4.1-1.3v-4.3v-1.4
		c0-13.9-6.1-20.1-19.7-20.1h-31.5c-13.9,0-19.6,6.1-19.6,21.2v5.7c0,15,5.7,21.2,19.6,21.2c10.4,0,20.9,0,31.3,0c0,2.6,0,5.2,0,7.8
		c-10.8,0-21.6,0-32.3,0c0-1.5,0-3.1,0-4.6v-7.6l-7.3,1.9l-9.2,2.4l-4.4,1.1v4.5v1.8c0,15,5.7,21.2,19.7,21.2h34.5
		c13.9,0,19.6-6.1,19.6-21.2v-7.3c0-15-5.7-21.2-19.6-21.2c-10.5,0-21,0-31.4,0c0-2.1,0-4.3,0-6.4C275.2,78.6,285.3,78.6,295.3,78.6
		L295.3,78.6z"/>
	<path fill="#25408F" d="M115,97.4c0.5-4,1.9-7.2,4.2-9.4c2.3-2.2,5.3-3.3,9-3.3c3.8,0,6.7,1.1,8.9,3.4c2.2,2.3,3.4,5.4,3.8,9.2H115
		L115,97.4z M152.5,89.4c-1.1-3.3-2.7-6.2-4.9-8.6c-2.2-2.4-4.8-4.3-8-5.7c-3.2-1.4-6.9-2.1-11.1-2.1c-4.6,0-8.6,0.8-12.2,2.4
		c-3.6,1.6-6.5,3.8-9,6.5c-2.4,2.7-4.2,5.9-5.5,9.4c-1.2,3.6-1.8,7.2-1.8,11c0,4,0.6,7.7,1.8,11.2c1.2,3.5,3.1,6.6,5.7,9.2
		c2.5,2.6,5.8,4.7,9.6,6.3c3.9,1.5,8.4,2.3,13.7,2.3c2.8,0,5.9-0.3,9.4-0.9c3.4-0.6,6.9-1.3,10.3-2.3l-1.8-11.6
		c-2.8,0.9-5.6,1.6-8.5,2.2c-2.9,0.6-5.5,0.9-7.8,0.9c-5.8,0-10-1.2-12.7-3.5c-2.6-2.3-4.3-5.5-4.9-9.4h39c0.2-1,0.3-2.1,0.3-3.4
		c0-1.3,0.1-2.4,0.1-3.4C154.2,96.2,153.6,92.7,152.5,89.4L152.5,89.4z"/>
	<path fill="none" stroke="#25408F" stroke-width="18.72" d="M115,97.4c0.5-4,1.9-7.2,4.2-9.4c2.3-2.2,5.3-3.3,9-3.3
		c3.8,0,6.7,1.1,8.9,3.4c2.2,2.3,3.4,5.4,3.8,9.2H115L115,97.4z M152.5,89.4c-1.1-3.3-2.7-6.2-4.9-8.6c-2.2-2.4-4.8-4.3-8-5.7
		c-3.2-1.4-6.9-2.1-11.1-2.1c-4.6,0-8.6,0.8-12.2,2.4c-3.6,1.6-6.5,3.8-9,6.5c-2.4,2.7-4.2,5.9-5.5,9.4c-1.2,3.6-1.8,7.2-1.8,11
		c0,4,0.6,7.7,1.8,11.2c1.2,3.5,3.1,6.6,5.7,9.2c2.5,2.6,5.8,4.7,9.6,6.3c3.9,1.5,8.4,2.3,13.7,2.3c2.8,0,5.9-0.3,9.4-0.9
		c3.4-0.6,6.9-1.3,10.3-2.3l-1.8-11.6c-2.8,0.9-5.6,1.6-8.5,2.2c-2.9,0.6-5.5,0.9-7.8,0.9c-5.8,0-10-1.2-12.7-3.5
		c-2.6-2.3-4.3-5.5-4.9-9.4h39c0.2-1,0.3-2.1,0.3-3.4c0-1.3,0.1-2.4,0.1-3.4C154.2,96.2,153.6,92.7,152.5,89.4L152.5,89.4z"/>
	<path fill="#FFFFFF" d="M220.3,73.9c0,2.8,0,5.5,0,8.3v1.6l1.5-0.5l8.5-2.6l0.8-0.3v-0.9v-1.4c0-11.3-3.9-15.4-15-15.4h-31.5
		c-11.3,0-14.9,4-14.9,16.5v5.7c0,12.5,3.6,16.5,14.9,16.5c12,0,24,0,36,0c0,5.7,0,11.4,0,17.1c-13.9,0-27.8,0-41.7,0
		c0-3.1,0-6.2,0-9.3v-1.5l-1.5,0.4l-9.2,2.4l-0.9,0.2v0.9v1.8c0,12.5,3.7,16.5,15,16.5h34.5c11.3,0,14.9-4,14.9-16.5v-7.3
		c0-12.5-3.6-16.5-14.9-16.5c-12,0-24.1,0-36.1,0c0-5.3,0-10.5,0-15.8C193.9,73.9,207.1,73.9,220.3,73.9L220.3,73.9z"/>
	<path fill="none" stroke="#FFFFFF" stroke-width="2.34" d="M220.3,73.9c0,2.8,0,5.5,0,8.3v1.6l1.5-0.5l8.5-2.6l0.8-0.3v-0.9v-1.4
		c0-11.3-3.9-15.4-15-15.4h-31.5c-11.3,0-14.9,4-14.9,16.5v5.7c0,12.5,3.6,16.5,14.9,16.5c12,0,24,0,36,0c0,5.7,0,11.4,0,17.1
		c-13.9,0-27.8,0-41.7,0c0-3.1,0-6.2,0-9.3v-1.5l-1.5,0.4l-9.2,2.4l-0.9,0.2v0.9v1.8c0,12.5,3.7,16.5,15,16.5h34.5
		c11.3,0,14.9-4,14.9-16.5v-7.3c0-12.5-3.6-16.5-14.9-16.5c-12,0-24.1,0-36.1,0c0-5.3,0-10.5,0-15.8
		C193.9,73.9,207.1,73.9,220.3,73.9L220.3,73.9z"/>
	<path fill="#FFFFFF" d="M33.3,97.7l57.2,44.7l0.9,0.7l0.7-0.9l5.6-7.1l0.7-0.9l-0.9-0.7C81.3,120.7,65.1,108.1,49,95.5
		C63.2,77.3,77.4,59.1,91.6,41l0.7-0.9l-0.9-0.7l-7.8-6.1l-0.9-0.7L82,33.4L33.1,96l-0.7,0.9L33.3,97.7L33.3,97.7z"/>
	<path fill="none" stroke="#FFFFFF" stroke-width="2.34" d="M33.3,97.7l57.2,44.7l0.9,0.7l0.7-0.9l5.6-7.1l0.7-0.9l-0.9-0.7
		C81.3,120.7,65.1,108.1,49,95.5C63.2,77.3,77.4,59.1,91.6,41l0.7-0.9l-0.9-0.7l-7.8-6.1l-0.9-0.7L82,33.4L33.1,96l-0.7,0.9
		L33.3,97.7L33.3,97.7z"/>
	<path fill="#FFFFFF" d="M300,73.9c0,2.8,0,5.5,0,8.3v1.6l1.5-0.5l8.5-2.6l0.8-0.3v-0.9v-1.4c0-11.3-3.9-15.4-15-15.4h-31.5
		c-11.3,0-14.9,4-14.9,16.5v5.7c0,12.5,3.6,16.5,14.9,16.5c12,0,24,0,36,0c0,5.7,0,11.4,0,17.1c-13.9,0-27.8,0-41.7,0
		c0-3.1,0-6.2,0-9.3v-1.5l-1.5,0.4l-9.2,2.4l-0.9,0.2v0.9v1.8c0,12.5,3.7,16.5,15,16.5h34.5c11.3,0,14.9-4,14.9-16.5v-7.3
		c0-12.5-3.6-16.5-14.9-16.5c-12,0-24.1,0-36.1,0c0-5.3,0-10.5,0-15.8C273.7,73.9,286.8,73.9,300,73.9L300,73.9z"/>
	<path fill="none" stroke="#FFFFFF" stroke-width="2.34" d="M300,73.9c0,2.8,0,5.5,0,8.3v1.6l1.5-0.5l8.5-2.6l0.8-0.3v-0.9v-1.4
		c0-11.3-3.9-15.4-15-15.4h-31.5c-11.3,0-14.9,4-14.9,16.5v5.7c0,12.5,3.6,16.5,14.9,16.5c12,0,24,0,36,0c0,5.7,0,11.4,0,17.1
		c-13.9,0-27.8,0-41.7,0c0-3.1,0-6.2,0-9.3v-1.5l-1.5,0.4l-9.2,2.4l-0.9,0.2v0.9v1.8c0,12.5,3.7,16.5,15,16.5h34.5
		c11.3,0,14.9-4,14.9-16.5v-7.3c0-12.5-3.6-16.5-14.9-16.5c-12,0-24.1,0-36.1,0c0-5.3,0-10.5,0-15.8C273.7,73.9,286.8,73.9,300,73.9
		L300,73.9z"/>
	<path fill="#FFFFFF" d="M115,97.4c0.5-4,1.9-7.2,4.2-9.4c2.3-2.2,5.3-3.3,9-3.3c3.8,0,6.7,1.1,8.9,3.4c2.2,2.3,3.4,5.4,3.8,9.2H115
		L115,97.4z M152.5,89.4c-1.1-3.3-2.7-6.2-4.9-8.6c-2.2-2.4-4.8-4.3-8-5.7c-3.2-1.4-6.9-2.1-11.1-2.1c-4.6,0-8.6,0.8-12.2,2.4
		c-3.6,1.6-6.5,3.8-9,6.5c-2.4,2.7-4.2,5.9-5.5,9.4c-1.2,3.6-1.8,7.2-1.8,11c0,4,0.6,7.7,1.8,11.2c1.2,3.5,3.1,6.6,5.7,9.2
		c2.5,2.6,5.8,4.7,9.6,6.3c3.9,1.5,8.4,2.3,13.7,2.3c2.8,0,5.9-0.3,9.4-0.9c3.4-0.6,6.9-1.3,10.3-2.3l-1.8-11.6
		c-2.8,0.9-5.6,1.6-8.5,2.2c-2.9,0.6-5.5,0.9-7.8,0.9c-5.8,0-10-1.2-12.7-3.5c-2.6-2.3-4.3-5.5-4.9-9.4h39c0.2-1,0.3-2.1,0.3-3.4
		c0-1.3,0.1-2.4,0.1-3.4C154.2,96.2,153.6,92.7,152.5,89.4L152.5,89.4z"/>
</g>
</svg>
