<?xml version="1.0" encoding="UTF-8" standalone="no"?>
<!--
  ~
  ~ Copyright 2006-2017 Marcel Baumann
  ~
  ~ Licensed under the Apache License, Version 2.0 (the "License"); you may not use this file except in compliance with
  ~ the License. You may obtain a copy of the License at
  ~
  ~       http://www.apache.org/licenses/LICENSE-2.0
  ~
  ~ Unless required by applicable law or agreed to in writing, software distributed under the License is distributed on an "AS IS"
  ~ BASIS, WITHOUT WARRANTIES OR CONDITIONS OF ANY KIND, either express or implied. See the License for the specific
  ~ language governing permissions and limitations under the License.
  ~
  -->

<!DOCTYPE svg PUBLIC "-//W3C//DTD SVG 1.1//EN"
        "http://www.w3.org/Graphics/SVG/1.1/DTD/svg11.dtd">
<!-- Generated by graphviz version 2.36.0 (20140111.2315)
 -->
<!-- Title: G Pages: 1 -->
<svg width="304pt" height="291pt"
     viewBox="0.00 0.00 304.00 291.00" xmlns="http://www.w3.org/2000/svg">
    <g id="graph0" class="graph" transform="scale(1 1) rotate(0) translate(4 287)">
        <title>G</title>
        <polygon fill="white" stroke="none" points="-4,4 -4,-287 300,-287 300,4 -4,4"/>
        <g id="clust1" class="cluster">
            <title>cluster1001</title>
        </g>
        <g id="clust2" class="cluster">
            <title>cluster1</title>
            <polygon fill="lightgrey" stroke="black" stroke-dasharray="5,2"
                     points="16,-16 16,-267 118,-267 118,-16 16,-16"/>
            <text text-anchor="middle" x="67" y="-251.8" font-family="Times,serif" font-size="14.00">
                Running
            </text>
        </g>
        <!-- Poweroff -->
        <g id="node1" class="node">
            <title>Poweroff</title>
            <ellipse fill="none" stroke="black" cx="179" cy="-42" rx="44.271" ry="18"/>
            <text text-anchor="middle" x="179" y="-38.3" font-family="Times,serif" font-size="14.00">
                Poweroff
            </text>
        </g>
        <!-- Rinsing -->
        <g id="node3" class="node">
            <title>Rinsing</title>
            <ellipse fill="none" stroke="black" cx="71" cy="-130" rx="38.4949" ry="18"/>
            <text text-anchor="middle" x="71" y="-126.3" font-family="Times,serif" font-size="14.00">
                Rinsing
            </text>
        </g>
        <!-- Poweroff&#45;&gt;Rinsing -->
        <g id="edge1" class="edge">
            <title>Poweroff&#45;&gt;Rinsing</title>
            <path fill="none" stroke="black"
                  d="M143.964,-53.0712C138.573,-54.7738 132.96,-56.6276 127.436,-58.5802"/>
            <polygon fill="black" stroke="black"
                     points="125.828,-55.4431 117.659,-62.1902 128.252,-62.0098 125.828,-55.4431"/>
            <text text-anchor="middle" x="127.5" y="-82.3" font-family="Times,serif" font-size="14.00">
                RestorePower
            </text>
        </g>
        <!-- End -->
        <g id="node2" class="node">
            <title>End</title>
            <ellipse fill="none" stroke="black" stroke-width="2" cx="269" cy="-42" rx="27" ry="18"/>
            <text text-anchor="middle" x="269" y="-38.3" font-family="Times,serif" font-size="14.00">End
            </text>
        </g>
        <!-- Rinsing&#45;&gt;Poweroff -->
        <g id="edge3" class="edge">
            <title>Rinsing&#45;&gt;Poweroff</title>
            <path fill="none" stroke="black"
                  d="M117.898,-121.656C135.558,-116.636 154.396,-108.193 167,-94 172.84,-87.4239 175.98,-78.5402 177.627,-70.0301"/>
            <polygon fill="black" stroke="black"
                     points="181.109,-70.3929 178.976,-60.0151 174.172,-69.4582 181.109,-70.3929"/>
            <text text-anchor="middle" x="204.5" y="-82.3" font-family="Times,serif" font-size="14.00">
                CutPower
            </text>
        </g>
        <!-- Rinsing&#45;&gt;End -->
        <g id="edge2" class="edge">
            <title>Rinsing&#45;&gt;End</title>
            <path fill="none" stroke="black"
                  d="M117.892,-128.742C153.447,-126.405 202.002,-118.415 237,-94 246.002,-87.7205 253.002,-78.0125 258.129,-68.7448"/>
            <polygon fill="black" stroke="black"
                     points="261.277,-70.2746 262.636,-59.7673 255.022,-67.1339 261.277,-70.2746"/>
            <text text-anchor="middle" x="265" y="-82.3" font-family="Times,serif" font-size="14.00">
                Stop
            </text>
        </g>
        <!-- Drying -->
        <g id="node4" class="node">
            <title>Drying</title>
            <ellipse fill="none" stroke="black" stroke-width="2" cx="60" cy="-42" rx="36.096" ry="18"/>
            <text text-anchor="middle" x="60" y="-38.3" font-family="Times,serif" font-size="14.00">
                Drying
            </text>
        </g>
        <!-- Rinsing&#45;&gt;Drying -->
        <g id="edge4" class="edge">
            <title>Rinsing&#45;&gt;Drying</title>
            <path fill="none" stroke="black"
                  d="M54.7571,-113.335C50.0284,-107.733 45.4727,-101.049 43,-94 40.1448,-85.8604 41.5669,-76.9508 44.5501,-68.888"/>
            <polygon fill="black" stroke="black"
                     points="47.8284,-70.1338 48.7805,-59.5818 41.4559,-67.2369 47.8284,-70.1338"/>
            <text text-anchor="middle" x="54" y="-82.3" font-family="Times,serif" font-size="14.00">Dry
            </text>
        </g>
        <!-- Washing -->
        <g id="node5" class="node">
            <title>Washing</title>
            <ellipse fill="none" stroke="black" stroke-dasharray="5,2" cx="67" cy="-218" rx="42.3456"
                     ry="18"/>
            <text text-anchor="middle" x="67" y="-214.3" font-family="Times,serif" font-size="14.00">
                Washing
            </text>
        </g>
        <!-- Washing&#45;&gt;Rinsing -->
        <g id="edge5" class="edge">
            <title>Washing&#45;&gt;Rinsing</title>
            <path fill="none" stroke="black"
                  d="M67.8095,-199.597C68.3607,-187.746 69.1015,-171.817 69.7306,-158.292"/>
            <polygon fill="black" stroke="black"
                     points="73.2369,-158.236 70.2054,-148.084 66.2445,-157.911 73.2369,-158.236"/>
            <text text-anchor="middle" x="86" y="-170.3" font-family="Times,serif" font-size="14.00">
                Rinse
            </text>
        </g>
    </g>
</svg>
