<?xml version="1.0" encoding="UTF-8" standalone="no"?>
<!--
  ~
  ~ Copyright 2006-2017 Marcel Baumann
  ~
  ~ Licensed under the Apache License, Version 2.0 (the "License"); you may not use this file except in compliance with
  ~ the License. You may obtain a copy of the License at
  ~
  ~       http://www.apache.org/licenses/LICENSE-2.0
  ~
  ~ Unless required by applicable law or agreed to in writing, software distributed under the License is distributed on an "AS IS"
  ~ BASIS, WITHOUT WARRANTIES OR CONDITIONS OF ANY KIND, either express or implied. See the License for the specific
  ~ language governing permissions and limitations under the License.
  ~
  -->

<!DOCTYPE svg PUBLIC "-//W3C//DTD SVG 1.1//EN"
        "http://www.w3.org/Graphics/SVG/1.1/DTD/svg11.dtd">
<!-- Generated by graphviz version 2.36.0 (20140111.2315)
 -->
<!-- Title: G Pages: 1 -->
<svg width="1077pt" height="351pt"
     viewBox="0.00 0.00 1077.28 351.00" xmlns="http://www.w3.org/2000/svg">
    <g id="graph0" class="graph" transform="scale(1 1) rotate(0) translate(4 347)">
        <title>G</title>
        <polygon fill="white" stroke="none" points="-4,4 -4,-347 1073.28,-347 1073.28,4 -4,4"/>
        <g id="clust1" class="cluster">
            <title>cluster1003</title>
        </g>
        <g id="clust2" class="cluster">
            <title>cluster3</title>
            <polygon fill="lightgrey" stroke="black"
                     points="335.281,-16 335.281,-257 1053.28,-257 1053.28,-16 335.281,-16"/>
            <text text-anchor="middle" x="694.281" y="-241.8" font-family="Times,serif" font-size="14.00">
                On
            </text>
        </g>
        <g id="clust3" class="cluster">
            <title>cluster1004</title>
        </g>
        <g id="clust4" class="cluster">
            <title>cluster4</title>
            <polygon fill="lightgrey" stroke="black"
                     points="351.281,-32 351.281,-195 705.281,-195 705.281,-32 351.281,-32"/>
            <text text-anchor="middle" x="528.281" y="-179.8" font-family="Times,serif" font-size="14.00">
                FM
            </text>
        </g>
        <!-- Off -->
        <g id="node1" class="node">
            <title>Off</title>
            <ellipse fill="none" stroke="black" stroke-dasharray="5,2" cx="377.281" cy="-325" rx="27"
                     ry="18"/>
            <text text-anchor="middle" x="377.281" y="-321.3" font-family="Times,serif" font-size="14.00">
                Off
            </text>
        </g>
        <!-- Maintenance -->
        <g id="node2" class="node">
            <title>Maintenance</title>
            <ellipse fill="none" stroke="black" cx="135.281" cy="-146" rx="57.2688" ry="18"/>
            <text text-anchor="middle" x="135.281" y="-142.3" font-family="Times,serif" font-size="14.00">
                Maintenance
            </text>
        </g>
        <!-- Off&#45;&gt;Maintenance -->
        <g id="edge1" class="edge">
            <title>Off&#45;&gt;Maintenance</title>
            <path fill="none" stroke="black"
                  d="M350.293,-323.466C269.546,-321.59 34.0092,-314.005 11.2812,-289 -27.8874,-245.907 47.2891,-194.121 96.7865,-166.542"/>
            <polygon fill="black" stroke="black"
                     points="98.5938,-169.543 105.697,-161.682 95.2416,-163.398 98.5938,-169.543"/>
            <text text-anchor="middle" x="139.281" y="-277.3" font-family="Times,serif" font-size="14.00">
                TogglePower[Maintenance On]/log transition
            </text>
        </g>
        <!-- Play -->
        <g id="node3" class="node">
            <title>Play</title>
            <ellipse fill="lightgrey" stroke="black" stroke-dasharray="5,2" cx="607.281" cy="-146" rx="27"
                     ry="18"/>
            <text text-anchor="middle" x="607.281" y="-142.3" font-family="Times,serif" font-size="14.00">
                Play
            </text>
        </g>
        <!-- Off&#45;&gt;Play -->
        <g id="edge2" class="edge">
            <title>Off&#45;&gt;Play</title>
            <path fill="none" stroke="black"
                  d="M399.141,-314.195C412.608,-307.768 429.974,-298.767 444.281,-289 456.072,-280.951 467.957,-272.158 479.649,-263.021"/>
            <polygon fill="black" stroke="black"
                     points="482.037,-265.595 487.709,-256.645 477.694,-260.105 482.037,-265.595"/>
            <text text-anchor="middle" x="593.781" y="-277.3" font-family="Times,serif" font-size="14.00">
                TogglePower[Maintenance Off]/log transition
            </text>
        </g>
        <!-- Maintenance&#45;&gt;Off -->
        <g id="edge3" class="edge">
            <title>Maintenance&#45;&gt;Off</title>
            <path fill="none" stroke="black"
                  d="M152.418,-163.452C190.345,-199.816 278.644,-284.202 286.281,-289 303.654,-299.915 324.976,-308.34 342.613,-314.186"/>
            <polygon fill="black" stroke="black"
                     points="341.924,-317.64 352.514,-317.33 344.042,-310.968 341.924,-317.64"/>
            <text text-anchor="middle" x="363.281" y="-277.3" font-family="Times,serif" font-size="14.00">
                TogglePower/log transition
            </text>
        </g>
        <!-- Play&#45;&gt;Off -->
        <g id="edge4" class="edge">
            <title>Play&#45;&gt;Off</title>
            <path fill="none" stroke="black"
                  d="M736.563,-256.753C738.411,-267.746 735.638,-278.658 726.281,-289 705.643,-311.812 500.137,-320.418 414.471,-323.032"/>
            <polygon fill="black" stroke="black"
                     points="414.292,-319.535 404.399,-323.328 414.498,-326.532 414.292,-319.535"/>
            <text text-anchor="middle" x="813.281" y="-277.3" font-family="Times,serif" font-size="14.00">
                TogglePower/log transition
            </text>
        </g>
        <!-- AutoTune -->
        <g id="node4" class="node">
            <title>AutoTune</title>
            <ellipse fill="none" stroke="black" cx="474.281" cy="-58" rx="47.169" ry="18"/>
            <text text-anchor="middle" x="474.281" y="-54.3" font-family="Times,serif" font-size="14.00">
                AutoTune
            </text>
        </g>
        <!-- Play&#45;&gt;AutoTune -->
        <g id="edge6" class="edge">
            <title>Play&#45;&gt;AutoTune</title>
            <path fill="none" stroke="black"
                  d="M580.092,-145.065C525.169,-144.556 404.025,-139.978 378.281,-110 361.14,-90.0396 391.138,-76.6943 422.018,-68.6789"/>
            <polygon fill="black" stroke="black"
                     points="423.118,-72.0138 432.016,-66.2621 421.473,-65.2097 423.118,-72.0138"/>
            <text text-anchor="middle" x="449.781" y="-98.3" font-family="Times,serif" font-size="14.00">
                StationLost/log
                transition
            </text>
        </g>
        <!-- DAB -->
        <g id="node5" class="node">
            <title>DAB</title>
            <ellipse fill="none" stroke="black" stroke-dasharray="5,2" cx="822.281" cy="-58" rx="29.3479"
                     ry="18"/>
            <text text-anchor="middle" x="822.281" y="-54.3" font-family="Times,serif" font-size="14.00">
                DAB
            </text>
        </g>
        <!-- Play&#45;&gt;DAB -->
        <g id="edge5" class="edge">
            <title>Play&#45;&gt;DAB</title>
            <path fill="none" stroke="black"
                  d="M704.956,-105.833C710.37,-101.837 712.957,-98.2354 721.281,-94 741.845,-83.5365 766.257,-74.9812 785.929,-68.9485"/>
            <polygon fill="black" stroke="black"
                     points="787.154,-72.2358 795.739,-66.027 785.156,-65.5269 787.154,-72.2358"/>
            <text text-anchor="middle" x="796.781" y="-98.3" font-family="Times,serif" font-size="14.00">
                ToggleMode/log
                transition
            </text>
        </g>
        <!-- AutoTune&#45;&gt;Play -->
        <g id="edge7" class="edge">
            <title>AutoTune&#45;&gt;Play</title>
            <path fill="none" stroke="black"
                  d="M495.054,-74.4601C514.445,-88.8752 540.77,-108.396 543.281,-110 554.094,-116.908 566.373,-123.83 577.264,-129.673"/>
            <polygon fill="black" stroke="black"
                     points="575.929,-132.926 586.406,-134.503 579.199,-126.737 575.929,-132.926"/>
            <text text-anchor="middle" x="620.281" y="-98.3" font-family="Times,serif" font-size="14.00">
                StationFound/log transition
            </text>
        </g>
        <!-- DAB&#45;&gt;Play -->
        <g id="edge8" class="edge">
            <title>DAB&#45;&gt;Play</title>
            <path fill="none" stroke="black"
                  d="M845.046,-69.6078C863.676,-79.6979 885.032,-95.4543 872.281,-110 851.657,-133.528 779.236,-141.981 715.308,-144.712"/>
            <polygon fill="black" stroke="black"
                     points="714.988,-141.221 705.129,-145.102 715.256,-148.216 714.988,-141.221"/>
            <text text-anchor="middle" x="950.781" y="-98.3" font-family="Times,serif" font-size="14.00">
                ToggleMode/log
                transition
            </text>
        </g>
    </g>
</svg>
