<?xml version="1.0" encoding="UTF-8" standalone="no"?>
<!--
  ~
  ~ Copyright 2006-2017 Marcel Baumann
  ~
  ~ Licensed under the Apache License, Version 2.0 (the "License"); you may not use this file except in compliance with
  ~ the License. You may obtain a copy of the License at
  ~
  ~       http://www.apache.org/licenses/LICENSE-2.0
  ~
  ~ Unless required by applicable law or agreed to in writing, software distributed under the License is distributed on an "AS IS"
  ~ BASIS, WITHOUT WARRANTIES OR CONDITIONS OF ANY KIND, either express or implied. See the License for the specific
  ~ language governing permissions and limitations under the License.
  ~
  -->

<!DOCTYPE svg PUBLIC "-//W3C//DTD SVG 1.1//EN"
        "http://www.w3.org/Graphics/SVG/1.1/DTD/svg11.dtd">
<!-- Generated by graphviz version 2.36.0 (20140111.2315)
 -->
<!-- Title: G Pages: 1 -->
<svg width="444pt" height="396pt"
     viewBox="0.00 0.00 444.00 396.00" xmlns="http://www.w3.org/2000/svg">
    <g id="graph0" class="graph" transform="scale(1 1) rotate(0) translate(4 392)">
        <title>G</title>
        <polygon fill="white" stroke="none" points="-4,4 -4,-392 440,-392 440,4 -4,4"/>
        <g id="clust1" class="cluster">
            <title>cluster1001</title>
        </g>
        <g id="clust2" class="cluster">
            <title>cluster1</title>
            <polygon fill="none" stroke="black" stroke-dasharray="5,2"
                     points="16,-180 16,-372 175,-372 175,-180 16,-180"/>
            <text text-anchor="middle" x="95.5" y="-356.8" font-family="Times,serif" font-size="14.00">A
            </text>
        </g>
        <g id="clust3" class="cluster">
            <title>cluster1004</title>
        </g>
        <g id="clust4" class="cluster">
            <title>cluster4</title>
            <polygon fill="lightgrey" stroke="black" points="199,-86 199,-255 356,-255 356,-86 199,-86"/>
            <text text-anchor="middle" x="277.5" y="-239.8" font-family="Times,serif" font-size="14.00">
                B
            </text>
        </g>
        <!-- C -->
        <g id="node1" class="node">
            <title>C</title>
            <ellipse fill="none" stroke="black" stroke-width="2" cx="363" cy="-18" rx="27" ry="18"/>
            <text text-anchor="middle" x="363" y="-14.3" font-family="Times,serif" font-size="14.00">C
            </text>
        </g>
        <!-- AB -->
        <g id="node2" class="node">
            <title>AB</title>
            <ellipse fill="none" stroke="black" cx="72" cy="-323" rx="27" ry="18"/>
            <text text-anchor="middle" x="72" y="-319.3" font-family="Times,serif" font-size="14.00">AB
            </text>
        </g>
        <!-- AB&#45;&gt;C -->
        <g id="edge1" class="edge">
            <title>AB&#45;&gt;C</title>
            <path fill="none" stroke="black"
                  d="M174.52,-312.419C246.095,-303.666 333.395,-288.174 360,-263 420.783,-205.486 415.58,-159.111 395,-78 391.928,-65.8934 385.819,-53.5816 379.754,-43.3588"/>
            <polygon fill="black" stroke="black"
                     points="382.558,-41.2423 374.285,-34.6236 376.625,-44.9569 382.558,-41.2423"/>
            <text text-anchor="middle" x="422.5" y="-152.3" font-family="Times,serif" font-size="14.00">
                A_C
            </text>
        </g>
        <!-- AB&#45;&gt;AB -->
        <g id="edge2" class="edge">
            <title>AB&#45;&gt;AB</title>
            <path fill="none" stroke="black"
                  d="M96.5325,-331.121C107.508,-331.895 117,-329.188 117,-323 117,-318.843 112.715,-316.257 106.574,-315.242"/>
            <polygon fill="black" stroke="black"
                     points="106.652,-311.742 96.5325,-314.879 106.4,-318.738 106.652,-311.742"/>
            <text text-anchor="middle" x="142" y="-319.3" font-family="Times,serif" font-size="14.00">
                AB_AB/
            </text>
        </g>
        <!-- AA -->
        <g id="node3" class="node">
            <title>AA</title>
            <ellipse fill="none" stroke="black" stroke-dasharray="5,2" cx="116" cy="-206" rx="27"
                     ry="18"/>
            <text text-anchor="middle" x="116" y="-202.3" font-family="Times,serif" font-size="14.00">AA
            </text>
        </g>
        <!-- AB&#45;&gt;AA -->
        <g id="edge3" class="edge">
            <title>AB&#45;&gt;AA</title>
            <path fill="none" stroke="black"
                  d="M55.9075,-308.076C46.3389,-298.023 37.1139,-283.988 43,-271 52.04,-251.052 70.7098,-234.866 86.9049,-223.762"/>
            <polygon fill="black" stroke="black"
                     points="89.0971,-226.512 95.5708,-218.125 85.2798,-220.644 89.0971,-226.512"/>
            <text text-anchor="middle" x="68.5" y="-275.3" font-family="Times,serif" font-size="14.00">
                AB_AA/
            </text>
        </g>
        <!-- AA&#45;&gt;AB -->
        <g id="edge6" class="edge">
            <title>AA&#45;&gt;AB</title>
            <path fill="none" stroke="black"
                  d="M112.828,-224.038C109.402,-240.579 103.171,-266.171 94,-287 92.3867,-290.664 90.4319,-294.393 88.3611,-297.985"/>
            <polygon fill="black" stroke="black"
                     points="85.3709,-296.166 83.1028,-306.515 91.3297,-299.839 85.3709,-296.166"/>
            <text text-anchor="middle" x="125.5" y="-275.3" font-family="Times,serif" font-size="14.00">
                AA_AB/
            </text>
        </g>
        <!-- BA -->
        <g id="node4" class="node">
            <title>BA</title>
            <ellipse fill="lightgrey" stroke="black" cx="266" cy="-206" rx="27" ry="18"/>
            <text text-anchor="middle" x="266" y="-202.3" font-family="Times,serif" font-size="14.00">BA
            </text>
        </g>
        <!-- AA&#45;&gt;BA -->
        <g id="edge5" class="edge">
            <title>AA&#45;&gt;BA</title>
            <path fill="none" stroke="black" d="M143.164,-206C156.166,-206 172.46,-206 188.889,-206"/>
            <polygon fill="black" stroke="black"
                     points="189.108,-209.5 199.108,-206 189.108,-202.5 189.108,-209.5"/>
            <text text-anchor="middle" x="191" y="-212.8" font-family="Times,serif" font-size="14.00">
                AA_B/
            </text>
        </g>
        <!-- BB -->
        <g id="node5" class="node">
            <title>BB</title>
            <ellipse fill="none" stroke="black" stroke-dasharray="5,2" cx="266" cy="-112" rx="27"
                     ry="18"/>
            <text text-anchor="middle" x="266" y="-108.3" font-family="Times,serif" font-size="14.00">BB
            </text>
        </g>
        <!-- AA&#45;&gt;BB -->
        <g id="edge4" class="edge">
            <title>AA&#45;&gt;BB</title>
            <path fill="none" stroke="black"
                  d="M127.316,-189.548C137.306,-176.863 152.908,-159.223 170,-148 188.603,-135.785 212.028,-127.136 231.081,-121.493"/>
            <polygon fill="black" stroke="black"
                     points="232.198,-124.814 240.877,-118.738 230.302,-118.076 232.198,-124.814"/>
            <text text-anchor="middle" x="195" y="-152.3" font-family="Times,serif" font-size="14.00">
                AA_BB/
            </text>
        </g>
        <!-- BA&#45;&gt;C -->
        <g id="edge7" class="edge">
            <title>BA&#45;&gt;C</title>
            <path fill="none" stroke="black"
                  d="M355.876,-103.691C360.642,-82.6135 362.46,-62.0497 363.069,-46.4641"/>
            <polygon fill="black" stroke="black"
                     points="366.571,-46.4113 363.32,-36.3274 359.573,-46.2374 366.571,-46.4113"/>
            <text text-anchor="middle" x="376" y="-108.3" font-family="Times,serif" font-size="14.00">
                B_C/
            </text>
        </g>
        <!-- BA&#45;&gt;AB -->
        <g id="edge8" class="edge">
            <title>BA&#45;&gt;AB</title>
            <path fill="none" stroke="black"
                  d="M249.496,-220.724C234.017,-233.271 209.394,-252.441 183.258,-269.666"/>
            <polygon fill="black" stroke="black"
                     points="181.227,-266.811 174.729,-275.179 185.027,-272.69 181.227,-266.811"/>
            <text text-anchor="middle" x="201.5" y="-275.3" font-family="Times,serif" font-size="14.00">
                BA_A/
            </text>
        </g>
        <!-- BA&#45;&gt;BB -->
        <g id="edge9" class="edge">
            <title>BA&#45;&gt;BB</title>
            <path fill="none" stroke="black"
                  d="M248.354,-192.296C239.872,-185.075 230.574,-175.237 226,-164 223.319,-157.414 223.062,-154.476 226,-148 228.869,-141.677 233.508,-136.047 238.628,-131.249"/>
            <polygon fill="black" stroke="black"
                     points="240.885,-133.924 246.323,-124.831 236.402,-128.548 240.885,-133.924"/>
            <text text-anchor="middle" x="251" y="-152.3" font-family="Times,serif" font-size="14.00">
                BA_BB/
            </text>
        </g>
        <!-- BB&#45;&gt;C -->
        <g id="edge10" class="edge">
            <title>BB&#45;&gt;C</title>
            <path fill="none" stroke="black"
                  d="M276.323,-94.8508C284.537,-82.755 296.81,-66.2512 310,-54 317.238,-47.2766 325.902,-40.9724 334.106,-35.6174"/>
            <polygon fill="black" stroke="black"
                     points="336.127,-38.4818 342.74,-30.2043 332.408,-32.5511 336.127,-38.4818"/>
            <text text-anchor="middle" x="329.5" y="-58.3" font-family="Times,serif" font-size="14.00">
                BB_C/
            </text>
        </g>
        <!-- BB&#45;&gt;BA -->
        <g id="edge11" class="edge">
            <title>BB&#45;&gt;BA</title>
            <path fill="none" stroke="black"
                  d="M271.85,-129.885C273.542,-135.568 275.159,-141.992 276,-148 277.392,-157.937 276.176,-168.797 274.174,-178.346"/>
            <polygon fill="black" stroke="black"
                     points="270.768,-177.542 271.781,-188.088 277.566,-179.212 270.768,-177.542"/>
            <text text-anchor="middle" x="302" y="-152.3" font-family="Times,serif" font-size="14.00">
                BB_BA/
            </text>
        </g>
    </g>
</svg>
