<!--
  - Copyright 2022 Marcel Baumann
  -
  - Licensed under the Apache License, Version 2.0 (the "License"); you may not use this file except in compliance with the License. You may obtain a copy of
  - the License at
  -
  -          https://apache.org/licenses/LICENSE-2.0
  -
  - Unless required by applicable law or agreed to in writing, software distributed under the License is distributed on an "AS IS" BASIS, WITHOUT WARRANTIES
  - OR CONDITIONS OF ANY KIND, either express or implied. See the License for the specific language governing permissions and limitations under the License.
  -->

<svg xmlns="http://www.w3.org/2000/svg" viewBox="0 0 600 1100">
    <defs>
        <linearGradient id="a" x1="266.13" y1="1032.85" x2="266.13" y2="781.76" gradientUnits="userSpaceOnUse">
            <stop offset="0" stop-color="#004a70"/>
            <stop offset="1" stop-color="#0073a7"/>
        </linearGradient>
        <linearGradient id="b" x1="222.66" y1="967.43" x2="222.66" y2="733.9" gradientUnits="userSpaceOnUse">
            <stop offset="0" stop-color="#008fcd"/>
            <stop offset="1" stop-color="#00aae6"/>
        </linearGradient>
    </defs>
    <title>hero-reindeer</title>
    <path fill="#00b7e6"
          d="M17.69 530.42l21.2 26.67 1.51 14.06-11.46 5.84-11.25-46.57zm87.12-376.91l14.42-16.44 93.72 73.1-108.14-56.66zm159.18 116.78l28.25-5.77-47.29 87.09 19.04-81.32zM149.76 464.67l28.26.29-97.18 52.92-55.07-1.89 123.99-51.32zm95.19-113.06l-60.15 46.76-91.23-14.75 97.97 39.36 53.41-71.37zM40.4 571.15l32.95 14.34-15.43 13.99-28.98-22.49 11.46-5.84z"/>
    <path fill="#00b7e6"
          d="M187.28 389.67l59.98 13.84-1.87 24.72-58.11-38.56zm137.46-2.11l7.87 26.33 115.63-90.83-123.5 64.5zm123.5-64.5l57.96-119.38 29.59 14.92-87.55 104.46zm-257.82 280.9l45.84 9.5-22.78 120.44-30.14-33.61 7.08-96.33z"/>
    <path fill="#00b7e6"
          d="M183.34 700.29l30.14 33.61-60.62 194.56-15.74-87 3.35-41.29 42.87-99.88zM25.77 515.99l55.07 1.89-3.75 18.88-38.2 20.33-21.2-26.67 8.08-14.43zm270.17-49.62l22.67 25.2 42.22-79.38-64.89 54.18zm-81.43-58.63l57.26-40.13-26.82-16-38.17 51 7.73 5.13zM535.79 218.6l-29.59-14.92-49.85-139.76 79.44 154.68z"/>
    <path fill="#0071a6"
          d="M57.92 599.48l15.43-13.99 59.83-14.99-13.41 18.81-61.85 10.17zm60.55-169.55l22.84 38.35 8.94-3.78 11.09-8.33-42.87-26.24zm68.81-40.26l-12.11 17.88 70.22 20.68-58.11-38.56zM36.74 415.65l7.79 4.33 43.69-15.14 5.35-21.22-56.83 32.03zm233.59-313.04l32.87-64.15 5.34 9.08-25.3 69.14-12.91-14.07zm21.91 161.91l-47.29 87.09 26.82 16 20.47-103.09z"/>
    <path fill="#0071a6"
          d="M175.17 407.55l-47.29-64.02 4.04-12.68 55.11 59.19-11.86 17.51zm72.09-4.04L245.4 428l79.72-40.64-77.86 16.15zm241.36-92.4l68.13-21.35-5.62 19.03-80.49 37.31 17.98-34.99zM119.23 137.07l93.72 73.1 12.32-21.41-106.04-51.69zm93.72 73.1l31.57-1.3 47.72 55.65-79.29-54.35z"/>
    <path fill="#0071a6"
          d="M240.45 426.14l4.32 1.19 8.31-.72 10.72 2.65 54.81 62.31-18.04 10.59-36.08-33.4-24.04-42.62zm78.16 65.43l-18.04 10.59 91.12 181.37-73.08-191.96zm-48.36 81.15l-33.99 40.74 72.47 80.32-38.48-121.06zm62.36-158.83l115.63-90.83 22.4 23.04-138.03 67.79zM535.79 218.6L456.35 63.92l16.55.49 59.14 115.42 3.75 38.77zm-291.27-9.73l14.71-89.1 24.01-3.09-38.72 92.19zm-139.71-55.36L84.05 84.74l6.92-10.38 28.26 62.71-14.42 16.44z"/>
    <path fill="url(#a)" d="M292.46 781.76l40.11 170.8-68.28 80.29-32.8-9.66-31.8-55.76 92.77-185.67z"/>
    <path fill="#0071a6" d="M318.61 491.57l42.22-79.38 40.66-13.55 4.62 46.42-26.82 36.63-60.68 9.88z"/>
    <path fill="#008dcd" d="M264.49 468.76l36.08 33.4-30.32 70.56-5.76-103.96zm132.2 279.86l-87.96-54.84-16.27 87.98 86.94 17.03 17.29-50.17z"/>
    <path fill="#008dcd" d="M197.63 487.17l66.86-18.41 5.76 103.96-72.62-85.55zm194.06 196.36l-40.95-81.46-42.01 91.71 87.96 54.84-5-65.09z"/>
    <path fill="#008dcd"
          d="M300.57 502.16l-30.32 70.56 38.48 121.06 42.01-91.71-50.17-99.91zm-122.55-37.2l19.61 22.21 66.86-18.41-24.04-42.62-3.36-.97-59.07 39.79zm114.3 316.8l40.04 170.8 26.17-60.55 20.87-93.22-87.08-17.03zM38.89 557.09l1.51 14.06 32.95 14.34 59.83-14.99-56.09-33.74-38.2 20.33zM245.4 427.84l79.34-40.28 7.87 26.33-87.21 13.95zm24.85 144.88l-137.07-2.22-13.41 18.81 116.49 24.15 33.99-40.74z"/>
    <path fill="#00a7e7"
          d="M146.17 426.9l8.87 5.41 40.76-18.81-20.63-5.95-29 19.35zm66.78-216.73l31.57-1.3 14.71-89.1-46.28 90.4zM29.12 345.98l47.12 47.77 17.33-10.13-62.29-51.91-2.16 14.27zM214.68 50.57l12.11-1.3 56.45 67.41-24.01 3.09-44.55-69.2zm233.56 272.49l87.55-104.46-45.38 92.51-19.77 34.99-22.4-23.04z"/>
    <path d="M93.57 383.61c-.11.52-5.35 21.22-5.35 21.22l68.34 14.71 35 3.43zm142.69 229.85L213.48 733.9l78.98 47.86 16.27-87.98-72.47-80.32z" fill="#00a7e7"/>
    <path fill="url(#b)" d="M213.48 733.9l78.98 47.86-92.77 185.67-46.83-38.97 60.62-194.56z"/>
    <path fill="#00a7e7"
          d="M197.63 487.17L80.84 517.88l-3.75 18.88 56.09 33.74 137.07 2.22-72.62-85.55zm-19.61-22.21l19.61 22.21-116.79 30.71 97.18-52.92zm-28.26-.29l47.31-34.74 35.96-5.29 4.06.53-59.07 39.79-28.26-.29zm63.19-254.5l51.04 60.12 28.25-5.77-79.29-54.35zm322.84 8.43l-3.75-38.77 39.04-75.2 10.38 16.01-45.67 97.96z"/>
    <path fill="#00a7e7" d="M278.11 248.05l51.62-56.48 3.03 12.55-40.71 60.77-13.94-16.84zM121.05 429.93l-37.61-1.3 4.9 34.89 11.39 21.92 43.54-18.03-22.22-37.48z"/>
    <g opacity=".7" fill="none" stroke="#fff" stroke-linecap="round" stroke-linejoin="round" stroke-width=".4">
        <path
            d="M39.37 557.37l1.51 14.03m32.87 14.31l-15.39 14.91m75.09-29.87l-14.04 19.49m212.4-176.57l141.9-69.7 77.9-35.17 25.05-27.08-87.41 29.4 52.86-107.61 37.98-82.43-20.08-24.06-29.23 83.12-59.01-115.16-27.85-5.35L505 203.94l-57.82 119.1-122.85 44.72-77.68 35.55-59.84-13.81-55.24-71.65-4.02 25.62 47.18 63.87-28.34 20.14 8.85 5.39 39.7-19.42 49.84 14.46 87.03-14.24"/>
        <path d="M281.89 118.93l-37.97 90.19 33.88 38.19 51.13-55.45 3.02 12.51-40.42 60.27-20.42 102.85-45.32 31.07"/>
        <path
            d="M193.65 391.01l37.74-44.34 31.95-76.27-50.92-60.42-107.89-56.1-20.71-68.61 11.76-24.94 23.34 77.15 105.8 51.57 33.87-68.83-55.79-69.05 23.43-1.29 43.44 53.22 32.79-76.97 5.33 22.02-25.9 70.78M156.75 420.14l-68.19-14.67-43.58 15.1-7.77-4.31 39.27-22.23-47.47-48.11 2.16-14.24 62.14 51.78 73.15 12.73m10.57 25.89l14.03.65 11.86-6.69M77.49 537.09l-38.12 20.28m38.12-20.28l55.96 33.66m0 0l-59.7 14.96M40.88 571.4l32.87 14.31M17.27 530.3l11.67 47.52m0 0l29.42 22.8M40.88 571.4l-11.94 6.42M17.27 530.3l22.1 27.07m-21.19-50.72l-.91 23.65m247.19-61.05l35.99 33.32m-122.27-37.12l-96.95 52.8m68.76-53.09L18.18 506.65m160-41.2l19.56 22.16m-47.75-22.45l28.19.29m19.56 22.16L81.23 518.25m116.51-30.64l72.46 85.36m-150.79 17.27l-61.05 10.38M318.45 492l63.78 4.72m0 0l23.52-51.12m0 0l-4.61-46.32m0 0l-40.56 13.52m-120.11 13.92l23.99 42.53M318.45 492l42.13-79.2m-109.97 14.03l13.16 3m.69 39.42l5.74 103.72m30.25-70.4l18-10.57M213.62 732.94l78.75 48.59M190.42 604.79L167.29 697m-.14-.53l46.41 37.3m23.12-119.47l-23.06 118.64M167.29 697l-41.15 98.04m0 0l11.23 46.05m0 0l1.14 90.04m80.06 109.09l55.41 9.64m69.74-75.25l-69.74 75.25m105.13-251.34l-20.54 93.01m20.54-93.01l-86.74-16.99m66.2 110l-14.85 83.08m-51.35-193.08l51.35 193.08m3.36-377.31l-38.48 96.44-16.23 87.79m0 0L183.6 974.87m0 0l34.97 65.35m-80.06-109.09l45.09 43.74m30.02-241.93l-75.11 198.19m-17.87-501.06l41.11 26.45M318.45 492l-54.68-62.17m32.07 37.03l64.74-54.06M318.45 492l87.49 188.28"/>
        <path
            d="M396.36 748.47l9.58-68.19-58.54-82.8-77.2-24.51 30.25-70.41M236.68 614.3l71.92 79.44m0 0l87.76 54.73m0 0l-17.25 50.05M236.68 614.3l33.52-41.33M81.23 518.25l-3.74 18.84m55.95 33.66l136.76 2.22 38.4 120.77M18.18 506.65l63.05 11.6m115.96-87.75l-47.2 34.66m-49.92 20.72l-11.36-21.87m0 0l-4.89-34.81m0 0l36.82.87m0 0l22.52 37.24M234.53 425l-37.34 5.5m67.27 38.75l-66.72 18.36m39.38-61.86l-58.94 39.7"/>
        <path
            d="M236.68 614.3l-46.26-9.51-71.01-14.55m78.06-176.08l-6.41 8.57m40.33-76.06l-19.76 48.57m19.76-48.57l39.72 20.82m20.42-102.85l-60.14 82.03m-18.97-136.69l79.11 54.66m-28.19 5.76l28.19-5.76m-47.61-55.52l-31.5 1.29-93.5-72.93-14.39 16.4m178.02-36.74l-23.96 3.08m-14.67 88.9l14.67-88.9m-46.17 90.19l12.3-21.36m44.95-85.95l12.88 14.04m-4.75 130.17l13.73 17.33m-108.8 154.75l8.33 3.34m-97.75-39.27l73.29 29.44m-73.29-29.44l-16.83 10.57m16.83-10.57l-4.74 22.01m98.24-15.97l-12.08 17.84m-.29-.15l20.5 6.26m-8.13-23.95l57.97 38.41m1.87-24.6l-1.87 24.6m0 0l79.55-60.15m0 0l7.48 45.91m115.37-90.63l22.34 22.99m19.73-34.91l-19.73 34.91M505 203.94l29.52 14.89m-3.74-38.69l3.74 38.69m0 0l-87.34 104.21m0 0l-115.37 90.63M443.92 59.64l90.6 159.19"/>
    </g>
    <circle cx="560.73" cy="98.13" r="3.67" fill="#fff"/>
    <circle cx="292.08" cy="265.58" r="3.67" fill="#fff"/>
    <circle cx="444.78" cy="61.16" r="3.67" fill="#fff"/>
    <circle cx="282.35" cy="118.09" r="3.67" fill="#fff"/>
    <circle cx="303.24" cy="27.6" r="3.67" fill="#fff"/>
    <circle cx="204.04" cy="52.22" r="3.67" fill="#fff"/>
    <circle cx="213.25" cy="211.5" r="3.67" fill="#fff"/>
    <circle cx="535" cy="219.78" r="3.67" transform="rotate(-89.92 534.982 219.785)" fill="#fff"/>
    <circle cx="328.55" cy="193.67" r="3.67" fill="#fff"/>
    <circle cx="447.96" cy="323.75" r="3.67" fill="#fff"/>
    <circle cx="400.91" cy="399.71" r="3.67" fill="#fff"/>
    <circle cx="324.9" cy="368.83" r="3.67" fill="#fff"/>
    <circle cx="245.26" cy="428.71" r="3.67" fill="#fff"/>
    <circle cx="19.09" cy="507.94" r="3.67" fill="#fff"/>
    <circle cx="29.44" cy="577.82" r="3.67" fill="#fff"/>
    <circle cx="58.83" cy="600.62" r="3.67" fill="#fff"/>
    <circle cx="119.41" cy="590.24" r="3.67" fill="#fff"/>
    <circle cx="236.68" cy="614.99" r="3.67" fill="#fff"/>
    <circle cx="167.77" cy="697.96" r="3.67" fill="#fff"/>
    <circle cx="126.62" cy="795.99" r="3.67" fill="#fff"/>
    <circle cx="137.53" cy="842.04" r="3.67" fill="#fff"/>
    <circle cx="139.33" cy="932.51" r="3.67" fill="#fff"/>
    <circle cx="184.14" cy="975.67" r="3.67" fill="#fff"/>
    <circle cx="216.86" cy="1040.26" r="3.67" fill="#fff"/>
    <circle cx="274.29" cy="1050.5" r="3.67" fill="#fff"/>
    <circle cx="344.49" cy="975.62" r="3.67" fill="#fff"/>
    <circle cx="358.96" cy="892.49" r="3.67" fill="#fff"/>
    <circle cx="190.68" cy="604.33" r="3.67" fill="#fff"/>
    <circle cx="214.32" cy="734.28" r="3.67" fill="#fff"/>
    <circle cx="270.2" cy="573.55" r="3.67" fill="#fff"/>
    <circle cx="197.67" cy="488.56" r="3.67" fill="#fff"/>
    <circle cx="81.15" cy="519.21" r="3.67" fill="#fff"/>
    <circle cx="264.93" cy="471.06" r="3.67" fill="#fff"/>
    <circle cx="406.42" cy="681.24" r="3.67" fill="#fff"/>
    <circle cx="309.07" cy="694.7" r="3.67" fill="#fff"/>
    <circle cx="293.01" cy="782.87" r="3.67" fill="#fff"/>
    <circle cx="379.59" cy="799.47" r="3.67" fill="#fff"/>
    <circle cx="347.08" cy="597.3" r="3.67" fill="#fff"/>
    <circle cx="396.93" cy="749.66" r="3.67" fill="#fff"/>
    <circle cx="84.83" cy="430.38" r="3.67" fill="#fff"/>
    <circle cx="37.25" cy="417" r="3.67" fill="#fff"/>
    <circle cx="94.08" cy="384.49" r="3.67" fill="#fff"/>
    <circle cx="132.25" cy="319.41" r="3.67" fill="#fff"/>
    <circle cx="119.58" cy="138.68" r="3.67" fill="#fff"/>
    <circle cx="231.44" cy="347.78" r="3.67" fill="#fff"/>
    <circle cx="187.37" cy="390.46" r="3.67" fill="#fff"/>
    <circle cx="32.07" cy="332.96" r="3.67" fill="#fff"/>
    <circle cx="147.3" cy="428.71" r="3.67" fill="#fff"/>
    <circle cx="360.58" cy="414.25" r="3.67" fill="#fff"/>
    <circle cx="382.23" cy="497.26" r="3.67" fill="#fff"/>
    <circle cx="575.5" cy="282.38" r="3.67" fill="#fff"/>
    <circle cx="96.65" cy="61.57" r="3.67" fill="#fff"/>
</svg>
